<svg width="78" height="79" viewBox="0 0 78 79" fill="none" xmlns="http://www.w3.org/2000/svg">
<path d="M77.75 39.3736C77.75 60.9832 60.3988 78.4972 39 78.4972C17.6012 78.4972 0.25 60.9832 0.25 39.3736C0.25 17.764 17.6012 0.25 39 0.25C60.3988 0.25 77.75 17.764 77.75 39.3736Z" stroke="white" stroke-width="0.5"/>
<path fill-rule="evenodd" clip-rule="evenodd" d="M19 39.3736C19 38.9869 19.1505 38.616 19.4184 38.3425C19.6863 38.0691 20.0496 37.9155 20.4285 37.9155H54.1206L45.1298 28.7413C44.8615 28.4675 44.7108 28.0961 44.7108 27.7089C44.7108 27.3217 44.8615 26.9504 45.1298 26.6766C45.398 26.4028 45.7618 26.249 46.1411 26.249C46.5205 26.249 46.8843 26.4028 47.1525 26.6766L58.5803 38.3412C58.7134 38.4767 58.8189 38.6376 58.8909 38.8147C58.9629 38.9919 59 39.1818 59 39.3736C59 39.5653 58.9629 39.7552 58.8909 39.9324C58.8189 40.1095 58.7134 40.2704 58.5803 40.4059L47.1525 52.0705C46.8843 52.3443 46.5205 52.4981 46.1411 52.4981C45.7618 52.4981 45.398 52.3443 45.1298 52.0705C44.8615 51.7967 44.7108 51.4254 44.7108 51.0382C44.7108 50.651 44.8615 50.2796 45.1298 50.0059L54.1206 40.8316H20.4285C20.0496 40.8316 19.6863 40.678 19.4184 40.4046C19.1505 40.1311 19 39.7603 19 39.3736Z" fill="white"/>
</svg>
